<?xml version="1.0" encoding="UTF-8" standalone="no"?>
<!DOCTYPE svg PUBLIC "-//W3C//DTD SVG 1.1//EN" "http://www.w3.org/Graphics/SVG/1.1/DTD/svg11.dtd">
<svg version="1.1" xmlns="http://www.w3.org/2000/svg" xmlns:xlink="http://www.w3.org/1999/xlink" preserveAspectRatio="xMidYMid meet" viewBox="0 0 640 640" width="640" height="640"><defs><path d="M320 0L320 0L0 106.24L48.81 500.16L320 640L320 640L320 640L591.19 500.16L640 106.24L320 0L320 0Z" id="cLZzkjjMM"></path><path d="M320 71.04L320 70.72L320 394.88L320 394.88L320 640L320 640L591.19 500.16L640 106.24L320 0L320 0L320 71.04Z" id="c1tFY8V8F"></path><path d="M119.96 488.32L119.96 488.32L194.54 488.32L194.54 488.32L234.76 394.88L404.55 394.88L444.77 488.32L444.77 488.32L519.36 488.32L519.36 488.32L320 70.72L320 70.72L320 70.72L320 70.72L320 70.72L119.96 488.32ZM261.57 337.28L320 206.4L378.43 337.28L261.57 337.28Z" id="ewUo5vruZ"></path></defs><g><g><g><use xlink:href="#cLZzkjjMM" opacity="1" fill="#dd0031" fill-opacity="1"></use><g><use xlink:href="#cLZzkjjMM" opacity="1" fill-opacity="0" stroke="#000000" stroke-width="1" stroke-opacity="0"></use></g></g><g><use xlink:href="#c1tFY8V8F" opacity="1" fill="#c3002f" fill-opacity="1"></use><g><use xlink:href="#c1tFY8V8F" opacity="1" fill-opacity="0" stroke="#000000" stroke-width="1" stroke-opacity="0"></use></g></g><g><use xlink:href="#ewUo5vruZ" opacity="1" fill="#ffffff" fill-opacity="1"></use><g><use xlink:href="#ewUo5vruZ" opacity="1" fill-opacity="0" stroke="#000000" stroke-width="1" stroke-opacity="0"></use></g></g></g></g></svg>