<?xml version="1.0" encoding="UTF-8" standalone="no"?>
<!DOCTYPE svg PUBLIC "-//W3C//DTD SVG 1.1//EN" "http://www.w3.org/Graphics/SVG/1.1/DTD/svg11.dtd">
<svg version="1.1" xmlns="http://www.w3.org/2000/svg" xmlns:xlink="http://www.w3.org/1999/xlink" preserveAspectRatio="xMidYMid meet" viewBox="0 0 640 640" width="640" height="640"><defs><path d="M206.12 494.95C206.12 494.95 172.96 509.17 229.72 513.98C298.48 519.77 333.63 518.94 409.41 508.36C409.41 508.36 429.33 517.57 457.15 525.55C287.28 579.25 72.69 522.44 206.12 494.95" id="e16iLhunkd"></path><path d="M185.36 424.88C185.36 424.88 148.17 445.18 204.97 449.52C278.43 455.1 336.44 455.56 436.82 441.31C436.82 441.31 450.7 451.69 472.53 457.36C267.14 501.66 38.37 460.86 185.36 424.88" id="c96cJcAWx"></path><path d="M360.36 306.02C402.21 341.56 349.36 373.54 349.36 373.54C349.36 373.54 455.64 333.08 406.83 282.4C361.24 235.15 326.28 211.67 515.54 130.72C515.54 130.72 218.47 185.44 360.36 306.02" id="b2ir3jApa"></path><path d="M585.03 546.78C585.03 546.78 609.57 561.69 558 573.22C459.95 595.13 149.89 601.75 63.76 574.1C32.8 564.16 90.86 550.38 109.12 547.48C128.17 544.44 139.06 545.01 139.06 545.01C104.62 527.12 -83.51 580.13 43.5 595.32C389.85 636.74 674.87 576.66 585.03 546.78" id="e2oXNliFmx"></path><path d="M222.07 352.28C222.07 352.28 64.35 379.9 166.21 389.94C209.23 394.18 294.97 393.22 374.83 388.29C440.1 384.23 505.64 375.59 505.64 375.59C505.64 375.59 482.62 382.86 465.97 391.25C305.82 422.31 -3.58 407.86 85.49 376.09C160.82 349.23 222.07 352.28 222.07 352.28" id="a1Omv7vuhU"></path><path d="M504.99 468.91C667.8 406.52 592.52 346.56 539.98 354.63C527.1 356.61 521.36 358.32 521.36 358.32C521.36 358.32 526.14 352.8 535.27 350.41C639.21 323.46 719.15 429.9 501.72 472.06C501.72 472.06 504.24 470.4 504.99 468.91" id="d1ueZHzUBW"></path><path d="M406.83 0C406.83 0 497 66.52 321.31 168.81C180.43 250.87 289.19 297.65 321.25 351.11C239.02 296.39 178.67 248.22 219.16 203.38C278.58 137.57 443.21 105.67 406.83 0" id="fxbrUCEGI"></path><path d="M238.06 637.99C394.34 645.37 634.32 633.89 640 579.36C640 579.36 629.07 600.03 510.85 616.45C377.46 634.96 212.95 632.8 115.38 620.94C115.38 620.94 135.35 633.13 238.06 637.99" id="cuB2FUfxO"></path></defs><g><g><g><use xlink:href="#e16iLhunkd" opacity="1" fill="#5382a1" fill-opacity="1"></use><g><use xlink:href="#e16iLhunkd" opacity="1" fill-opacity="0" stroke="#000000" stroke-width="1" stroke-opacity="0"></use></g></g><g><use xlink:href="#c96cJcAWx" opacity="1" fill="#5382a1" fill-opacity="1"></use><g><use xlink:href="#c96cJcAWx" opacity="1" fill-opacity="0" stroke="#000000" stroke-width="1" stroke-opacity="0"></use></g></g><g><use xlink:href="#b2ir3jApa" opacity="1" fill="#e76f00" fill-opacity="1"></use><g><use xlink:href="#b2ir3jApa" opacity="1" fill-opacity="0" stroke="#000000" stroke-width="1" stroke-opacity="0"></use></g></g><g><use xlink:href="#e2oXNliFmx" opacity="1" fill="#5382a1" fill-opacity="1"></use><g><use xlink:href="#e2oXNliFmx" opacity="1" fill-opacity="0" stroke="#000000" stroke-width="1" stroke-opacity="0"></use></g></g><g><use xlink:href="#a1Omv7vuhU" opacity="1" fill="#5382a1" fill-opacity="1"></use><g><use xlink:href="#a1Omv7vuhU" opacity="1" fill-opacity="0" stroke="#000000" stroke-width="1" stroke-opacity="0"></use></g></g><g><use xlink:href="#d1ueZHzUBW" opacity="1" fill="#5382a1" fill-opacity="1"></use><g><use xlink:href="#d1ueZHzUBW" opacity="1" fill-opacity="0" stroke="#000000" stroke-width="1" stroke-opacity="0"></use></g></g><g><use xlink:href="#fxbrUCEGI" opacity="1" fill="#e76f00" fill-opacity="1"></use><g><use xlink:href="#fxbrUCEGI" opacity="1" fill-opacity="0" stroke="#000000" stroke-width="1" stroke-opacity="0"></use></g></g><g><use xlink:href="#cuB2FUfxO" opacity="1" fill="#5382a1" fill-opacity="1"></use><g><use xlink:href="#cuB2FUfxO" opacity="1" fill-opacity="0" stroke="#000000" stroke-width="1" stroke-opacity="0"></use></g></g></g></g></svg>